<svg width="40" height="40" viewBox="0 0 40 40" fill="none" xmlns="http://www.w3.org/2000/svg">
  <circle cx="20" cy="20" r="18" fill="white" stroke="white" stroke-width="2"/>
  <path d="M12 11H16V29H12V11Z" fill="#8A2BE2"/>
  <path d="M20 11C22.7614 11 25 13.2386 25 16C25 18.7614 22.7614 21 20 21V29H16V16C16 13.2386 18.2386 11 21 11H20Z" fill="#8A2BE2"/>
  <path d="M28 11C30.7614 11 33 13.2386 33 16C33 18.7614 30.7614 21 28 21C25.2386 21 23 18.7614 23 16C23 13.2386 25.2386 11 28 11Z" fill="#8A2BE2"/>
</svg> 